<svg width="13" height="16" viewBox="0 0 13 16" fill="none" xmlns="http://www.w3.org/2000/svg">
<path d="M7.6497 7.82982L12.7618 1.92596C13.0794 1.55947 13.0794 0.96483 12.7618 0.598343C12.4442 0.231542 11.9298 0.231542 11.6122 0.598343L6.50014 6.5022L1.38778 0.598343C1.07017 0.231542 0.555815 0.231542 0.238206 0.598343C-0.0794021 0.96483 -0.0794021 1.55947 0.238206 1.92596L5.35057 7.82982L0.238206 13.7337C-0.0794021 14.1002 -0.0794021 14.6948 0.238206 15.0613C0.397011 15.2444 0.605136 15.3361 0.812991 15.3361C1.02085 15.3361 1.22897 15.2444 1.38778 15.061L6.50014 9.15712L11.6122 15.061C11.771 15.2444 11.9792 15.3361 12.187 15.3361C12.3949 15.3361 12.603 15.2444 12.7618 15.061C13.0794 14.6945 13.0794 14.0999 12.7618 13.7334L7.6497 7.82982Z" fill="white"/>
</svg>
