<svg width="136" height="136" viewBox="0 0 136 136" fill="none" xmlns="http://www.w3.org/2000/svg">
<path fill-rule="evenodd" clip-rule="evenodd" d="M68.4827 136C105.771 136 136 105.771 136 68.4827C136 31.1939 105.771 0.965332 68.4827 0.965332C31.1939 0.965332 0.965332 31.1939 0.965332 68.4827C0.965332 105.771 31.1939 136 68.4827 136ZM68.4825 129.047C101.913 129.047 129.014 101.946 129.014 68.5157C129.014 35.0852 101.913 7.98443 68.4825 7.98443C35.0519 7.98443 7.95116 35.0852 7.95116 68.5157C7.95116 101.946 35.0519 129.047 68.4825 129.047Z" fill="#324458"/>
<path fill-rule="evenodd" clip-rule="evenodd" d="M63.6423 89.429H72.7534V93.9845H63.6423V89.429ZM56.2399 93.9846C54.6674 93.9846 53.3927 95.2594 53.3927 96.8318V100.248C53.3927 101.821 54.6674 103.096 56.2399 103.096H80.7258C82.2983 103.096 83.573 101.821 83.573 100.248V100.248H96.1V96.8318H83.573C83.573 95.2593 82.2982 93.9846 80.7258 93.9846H56.2399ZM53.3924 96.8318H40.8647V100.248H53.3924V96.8318Z" fill="#324458"/>
<path fill-rule="evenodd" clip-rule="evenodd" d="M68.7329 45.5824L61.9954 38.9396H43.1427C39.3688 38.9396 36.3094 41.999 36.3094 45.7729V52.3087C36.3089 52.3443 36.3086 52.38 36.3086 52.4157V78.6099C36.3086 82.3838 39.368 85.4432 43.1419 85.4432H93.822C97.5959 85.4432 100.655 82.3838 100.655 78.6099V52.4157C100.655 48.6418 97.5959 45.5824 93.822 45.5824H68.7329Z" fill="#324458"/>
<path d="M57.3111 68.1836C57.3111 67.7661 57.1632 67.4443 56.8675 67.2181C56.5761 66.992 56.0477 66.7637 55.2824 66.5332C54.517 66.3027 53.9082 66.0462 53.4559 65.7635C52.5905 65.2199 52.1578 64.511 52.1578 63.637C52.1578 62.8716 52.4687 62.241 53.0906 61.7453C53.7168 61.2495 54.5279 61.0016 55.5237 61.0016C56.1847 61.0016 56.774 61.1234 57.2915 61.3669C57.809 61.6104 58.2156 61.9583 58.5113 62.4106C58.807 62.8585 58.9549 63.3565 58.9549 63.9044H57.3111C57.3111 63.4086 57.1545 63.0216 56.8414 62.7433C56.5326 62.4606 56.0891 62.3193 55.5107 62.3193C54.9714 62.3193 54.5518 62.4345 54.2517 62.665C53.956 62.8955 53.8081 63.2173 53.8081 63.6304C53.8081 63.9783 53.969 64.2697 54.2909 64.5045C54.6127 64.735 55.1432 64.9611 55.8825 65.1829C56.6218 65.4004 57.2154 65.6504 57.6633 65.9331C58.1112 66.2114 58.4395 66.5332 58.6483 66.8985C58.857 67.2595 58.9614 67.6835 58.9614 68.1705C58.9614 68.962 58.657 69.5925 58.0482 70.0622C57.4437 70.5275 56.6218 70.7602 55.5824 70.7602C54.8953 70.7602 54.2626 70.6341 53.6842 70.3818C53.1102 70.1253 52.6623 69.773 52.3404 69.3251C52.023 68.8772 51.8643 68.3553 51.8643 67.7596H53.5146C53.5146 68.2988 53.6929 68.7163 54.0495 69.012C54.4061 69.3077 54.9171 69.4556 55.5824 69.4556C56.1565 69.4556 56.587 69.3403 56.874 69.1098C57.1654 68.875 57.3111 68.5662 57.3111 68.1836Z" fill="white"/>
<path d="M66.5504 66.605H62.7278V70.6297H61.0775V61.1321H67.1114V62.4628H62.7278V65.2873H66.5504V66.605Z" fill="white"/>
<path d="M76.0832 62.4628H73.1218V70.6297H71.4845V62.4628H68.5491V61.1321H76.0832V62.4628Z" fill="white"/>
<path d="M79.654 67.1007V70.6297H78.0036V61.1321H81.637C82.6981 61.1321 83.5396 61.4082 84.1615 61.9605C84.7877 62.5128 85.1008 63.2434 85.1008 64.1523C85.1008 65.0829 84.7942 65.807 84.181 66.3245C83.5722 66.842 82.7177 67.1007 81.6174 67.1007H79.654ZM79.654 65.7765H81.637C82.2241 65.7765 82.672 65.6395 82.9808 65.3656C83.2895 65.0873 83.4439 64.6872 83.4439 64.1653C83.4439 63.6522 83.2874 63.2434 82.9743 62.939C82.6611 62.6302 82.2306 62.4715 81.6827 62.4628H79.654V65.7765Z" fill="white"/>
</svg>
