<svg width="98" height="120" viewBox="0 0 98 120" fill="none" xmlns="http://www.w3.org/2000/svg">
<path fill-rule="evenodd" clip-rule="evenodd" d="M17.0975 40.0658C15.9758 40.0658 15.0664 40.9752 15.0664 42.0969V93.3322C15.0664 94.4539 15.9758 95.3633 17.0975 95.3633H80.5695C81.6912 95.3633 82.6006 94.4539 82.6006 93.3322V42.0969C82.6006 40.9752 81.6912 40.0658 80.5695 40.0658H17.0975ZM78.371 44.1491H19.2948V91.278H78.371V44.1491Z" fill="#324458"/>
<circle cx="13.3153" cy="102.391" r="3.19565" fill="#324458"/>
<circle cx="13.3153" cy="33.152" r="3.19565" fill="#324458"/>
<circle cx="85.2181" cy="102.391" r="3.19565" fill="#324458"/>
<circle cx="85.2181" cy="33.152" r="3.19565" fill="#324458"/>
<path fill-rule="evenodd" clip-rule="evenodd" d="M3.04665 0.130371C1.36403 0.130371 0 1.4944 0 3.17702V116.388C0 118.071 1.36403 119.435 3.04665 119.435H94.9533C96.636 119.435 98 118.071 98 116.388V3.17702C98 1.4944 96.636 0.130371 94.9533 0.130371H3.04665ZM94.0049 4.39003H83.0867V23.1317C83.0867 24.2534 82.1774 25.1628 81.0556 25.1628H17.4765C16.3548 25.1628 15.4454 24.2534 15.4454 23.1317V4.39003H4.26038V115.173H94.0049V4.39003ZM78.8255 4.39029H19.7059V20.9012H26.0977V4.3911H30.3586V20.9012H36.4836V4.3911H40.7445V20.9012H47.1359V4.3911H51.3968V20.9012H57.7882V4.3911H62.0491V20.9012H68.1736V4.3911H72.4345V20.9012H78.8255V4.39029Z" fill="#324458"/>
<path fill-rule="evenodd" clip-rule="evenodd" d="M67.5579 61.6156C66.4859 60.6338 64.9342 60.127 63.0864 60.1832L63.0862 60.1767C63.0379 60.1802 62.989 60.1819 62.9398 60.1819H62.2534L62.2534 75.3615H63.6689C65.2607 75.305 66.6006 74.807 67.5579 73.9303C68.6034 72.9729 69.4426 71.335 69.4426 68.6046H69.4437V66.9413H69.4426C69.4426 64.2108 68.6034 62.573 67.5579 61.6156ZM73.4369 68.6046V66.9413H73.4371L73.4369 66.848V66.8415L73.4368 66.835C73.4146 63.2948 72.2811 60.5245 70.2558 58.6697C68.2506 56.8333 65.6177 56.1207 63.0188 56.1889C62.9926 56.1879 62.9662 56.1874 62.9398 56.1874H60.5218C60.4786 56.1874 60.4357 56.1888 60.3931 56.1915C60.3478 56.1884 60.3021 56.1868 60.2561 56.1868C59.153 56.1868 58.2588 57.081 58.2588 58.1841L58.2588 77.358C58.2588 78.4611 59.153 79.3553 60.2561 79.3553C60.2988 79.3553 60.3411 79.354 60.3832 79.3513C60.429 79.3545 60.4752 79.3561 60.5218 79.3561H62.9868C63.2321 79.3631 63.4777 79.3632 63.7232 79.3561H64.2501C64.4459 79.3561 64.6351 79.3279 64.8139 79.2754C66.7985 79.0368 68.7129 78.2891 70.2558 76.8762C72.3013 75.0029 73.4371 72.1957 73.4371 68.6046H73.4369Z" fill="white"/>
<path fill-rule="evenodd" clip-rule="evenodd" d="M28.7727 62.972C28.7727 61.5069 29.9204 60.3099 31.3657 60.2309C31.4175 60.235 31.4699 60.237 31.5228 60.237H36.5122C37.6153 60.237 38.5095 59.3428 38.5095 58.2397C38.5095 57.1367 37.6153 56.2424 36.5122 56.2424H31.5228L31.5179 56.2424V56.2322C27.7956 56.2322 24.7781 59.2497 24.7781 62.972C24.7781 66.5704 27.598 69.5101 31.1484 69.7019C31.2146 69.7085 31.2816 69.7119 31.3495 69.7119H31.8981C33.4023 69.7258 34.6174 70.9495 34.6174 72.457C34.6174 73.9732 33.3883 75.2023 31.8722 75.2023V75.2027H26.5627C25.4596 75.2027 24.5654 76.0969 24.5654 77.2C24.5654 78.303 25.4596 79.1973 26.5627 79.1973H32.1309C32.2372 79.1973 32.3415 79.189 32.4433 79.173C35.8983 78.8831 38.612 75.987 38.612 72.457C38.612 68.9099 35.8718 66.0028 32.3928 65.737C32.3008 65.724 32.2068 65.7173 32.1113 65.7173H31.9128C31.8993 65.7172 31.8857 65.7172 31.8722 65.7172V65.7173H31.5179V65.7173C30.0018 65.7173 28.7727 64.4882 28.7727 62.972Z" fill="white"/>
<path fill-rule="evenodd" clip-rule="evenodd" d="M48.0706 60.2268C46.5545 60.2268 45.3254 61.4559 45.3254 62.972C45.3254 64.4882 46.5545 65.7173 48.0706 65.7173V65.8363C48.283 65.7593 48.5122 65.7173 48.7513 65.7173H49.513C49.5362 65.7173 49.5593 65.7177 49.5823 65.7185V65.7173C53.3046 65.7173 56.3222 68.7348 56.3222 72.4571C56.3222 76.1794 53.3046 79.197 49.5823 79.197V78.9844C49.3123 79.1206 49.0072 79.1973 48.6842 79.1973H43.1159C42.0129 79.1973 41.1187 78.303 41.1187 77.2C41.1187 76.0969 42.0129 75.2027 43.1159 75.2027H48.6842C49.0072 75.2027 49.3123 75.2794 49.5823 75.4156V75.2024C51.0985 75.2024 52.3276 73.9733 52.3276 72.4571C52.3276 70.941 51.0985 69.7119 49.5823 69.7119V69.7107C49.5593 69.7115 49.5362 69.7119 49.513 69.7119H48.7513C48.5122 69.7119 48.283 69.6699 48.0706 69.5929V69.7118C44.3483 69.7118 41.3308 66.6943 41.3308 62.972C41.3308 59.2497 44.3483 56.2322 48.0706 56.2322V56.2867C48.2059 56.2578 48.3463 56.2426 48.4902 56.2426H53.4796C54.5827 56.2426 55.4769 57.1368 55.4769 58.2399C55.4769 59.3429 54.5827 60.2371 53.4796 60.2371H48.4902C48.3463 60.2371 48.2059 60.2219 48.0706 60.193V60.2268Z" fill="white"/>
</svg>
