<svg width="116" height="116" viewBox="0 0 116 116" fill="none" xmlns="http://www.w3.org/2000/svg">
<g clip-path="url(#clip0)">
<path d="M63.7333 0.184357C46.6364 0.184357 30.8355 8.55649 21.1465 22.1531C23.6019 22.8467 25.8546 24.1561 27.7108 26.0106L29.3068 27.6066C37.1924 16.7006 49.9442 9.99651 63.7333 9.99651C87.1427 9.99651 106.188 29.0419 106.188 52.4517C106.188 66.3095 99.5037 79.0193 88.5882 86.888L89.8208 88.1206C91.8052 90.1063 93.1674 92.558 93.8164 95.2063C107.558 85.5508 116 69.7275 116 52.4517C116 23.6314 92.5533 0.184357 63.7333 0.184357Z" fill="#324458"/>
<path d="M71.0778 81.4625C69.6801 80.0648 67.7687 79.3647 65.761 79.5664C62.2161 79.9247 58.8908 81.2893 56.1447 83.5132C55.7681 83.8211 55.2812 83.993 54.7801 83.993C54.2895 83.993 53.8101 83.8262 53.4301 83.5237C45.6589 77.2683 38.5579 70.1626 32.3174 62.3988C31.6799 61.6118 31.682 60.4635 32.3265 59.6731C34.5444 56.9341 35.9073 53.6109 36.2643 50.068C36.4625 48.093 35.7713 46.1546 34.3681 44.7501L21.6695 32.0529C20.4251 30.8098 18.7719 30.1246 17.0152 30.1246C16.8034 30.1246 16.5858 30.1351 16.3696 30.1561C12.2113 30.5638 8.2854 32.423 5.31807 35.391C-0.387535 41.0976 -1.64958 49.9939 2.24957 57.0258C12.1812 75.1435 36.066 101.257 58.8532 113.608C61.5015 115.053 64.5043 115.816 67.5414 115.816C72.3689 115.816 77.07 113.883 80.4396 110.514C83.4073 107.545 85.2672 103.619 85.6749 99.4587C85.8684 97.4918 85.1765 95.5609 83.7771 94.1601L71.0778 81.4625Z" fill="#324458"/>
<path d="M65.7678 17.8208C63.8991 17.8208 62.3843 19.3356 62.3843 21.2043V48.949C62.3843 50.8178 63.8991 52.3326 65.7678 52.3326H91.6384C93.5068 52.3326 95.0219 50.8178 95.0219 48.949C95.0219 47.0803 93.5068 45.5655 91.6384 45.5655H69.1513V21.2043C69.1513 19.3356 67.6362 17.8208 65.7678 17.8208Z" fill="#324458"/>
</g>
<defs>
<clipPath id="clip0">
<rect width="116" height="116" fill="white"/>
</clipPath>
</defs>
</svg>
