<?xml version="1.0" standalone="no"?>
<!DOCTYPE svg PUBLIC "-//W3C//DTD SVG 20010904//EN"
 "http://www.w3.org/TR/2001/REC-SVG-20010904/DTD/svg10.dtd">
<svg version="1.0" xmlns="http://www.w3.org/2000/svg"
 width="816.000000pt" height="816.000000pt" viewBox="0 0 816.000000 816.000000"
 preserveAspectRatio="xMidYMid meet">
<metadata>
Created by potrace 1.11, written by Peter Selinger 2001-2013
</metadata>
<g transform="translate(0.000000,816.000000) scale(0.100000,-0.100000)"
fill="#000000" stroke="none">
<path d="M4026 8082 c-2 -1 -54 -5 -117 -7 -118 -5 -235 -13 -279 -20 -14 -2
-47 -6 -75 -10 -59 -6 -103 -12 -130 -18 -11 -3 -40 -8 -65 -12 -25 -4 -53
-12 -64 -17 -10 -6 -16 -6 -13 -1 9 14 -371 -84 -473 -122 -19 -7 -44 -17 -55
-21 -11 -4 -22 -8 -25 -9 -30 -7 -88 -30 -97 -38 -7 -5 -13 -7 -13 -4 0 13
-407 -179 -505 -238 -22 -14 -59 -34 -82 -47 -24 -12 -43 -25 -43 -30 0 -4 -6
-8 -13 -8 -7 0 -22 -7 -32 -15 -11 -9 -59 -41 -107 -73 -134 -88 -326 -239
-446 -350 -186 -172 -305 -301 -457 -492 -33 -41 -63 -76 -67 -78 -5 -2 -8 -8
-8 -14 0 -5 -16 -29 -35 -52 -19 -24 -35 -48 -35 -54 0 -6 -3 -12 -8 -14 -9
-4 -84 -118 -142 -218 -25 -41 -49 -78 -55 -82 -5 -4 -6 -8 -1 -8 5 0 4 -6 -2
-12 -11 -14 -131 -243 -134 -255 0 -5 -14 -37 -31 -73 -53 -119 -168 -433
-182 -500 -2 -8 -14 -58 -28 -110 -24 -90 -34 -130 -41 -175 -2 -11 -9 -41
-15 -67 -6 -25 -13 -70 -16 -98 -3 -29 -7 -55 -9 -59 -2 -3 -7 -33 -11 -66 -4
-33 -9 -71 -10 -85 -19 -134 -27 -587 -13 -755 9 -110 18 -195 23 -225 2 -14
7 -47 11 -75 3 -27 7 -52 9 -55 2 -3 6 -30 10 -60 4 -30 9 -58 10 -61 2 -3 11
-39 20 -80 20 -95 20 -92 40 -169 9 -36 18 -70 19 -77 1 -7 5 -16 9 -19 4 -4
7 -18 7 -30 0 -13 4 -25 9 -29 6 -3 10 -13 9 -23 0 -15 18 -71 39 -122 3 -8 7
-19 8 -25 6 -25 78 -201 86 -209 5 -6 9 -16 9 -24 0 -26 176 -369 246 -480 19
-29 34 -57 34 -62 0 -6 5 -10 10 -10 6 0 10 -4 10 -10 0 -5 22 -41 50 -80 27
-39 50 -74 50 -79 0 -5 3 -11 8 -13 4 -2 34 -39 66 -83 33 -44 62 -82 66 -85
3 -3 16 -18 29 -35 57 -75 136 -161 276 -300 196 -196 296 -282 480 -414 55
-39 105 -74 110 -79 6 -4 28 -19 50 -32 22 -13 42 -28 43 -32 2 -4 7 -8 12 -8
5 0 45 -22 89 -50 44 -27 84 -50 88 -50 5 0 19 -9 33 -20 14 -11 33 -20 42
-20 9 0 18 -4 20 -8 10 -25 400 -193 606 -261 191 -62 531 -144 652 -156 14
-1 43 -5 65 -8 22 -4 63 -9 90 -12 28 -3 70 -8 95 -10 25 -3 111 -7 192 -9 81
-3 152 -7 158 -11 5 -3 10 -3 10 2 0 4 48 8 108 9 106 1 249 9 327 19 22 3 60
8 85 11 25 3 56 7 70 9 14 1 39 5 55 9 17 3 46 9 65 11 46 6 325 71 325 76 0
1 9 3 20 4 11 1 59 14 105 30 47 15 90 28 95 29 10 2 114 40 145 53 8 3 17 7
20 7 43 9 437 190 450 207 3 3 15 9 28 13 12 4 22 11 22 16 0 4 12 11 27 15
14 3 38 15 51 26 14 10 31 19 38 19 8 0 14 5 14 10 0 6 7 10 15 10 8 0 15 5
15 10 0 6 5 10 10 10 13 0 192 119 202 134 4 6 8 8 8 4 0 -4 8 -1 18 7 9 8 35
28 57 44 22 17 45 34 50 39 6 4 28 21 50 37 21 17 46 37 55 45 9 8 38 33 65
55 59 48 382 368 414 410 12 17 37 46 55 65 17 19 73 91 124 160 50 69 96 130
101 136 49 60 214 343 287 494 20 41 44 91 54 110 17 33 120 284 125 305 1 6
5 17 8 25 7 17 58 170 61 185 1 6 10 35 19 65 9 30 18 66 20 80 3 14 10 45 17
70 14 52 20 79 24 100 1 8 6 31 10 50 4 19 8 46 10 60 2 14 6 36 9 50 6 24 12
63 23 155 3 22 7 54 9 70 20 149 27 577 13 750 -10 118 -18 196 -24 230 -3 17
-7 46 -9 65 -6 52 -35 205 -55 291 -6 26 -13 55 -15 65 -2 11 -4 19 -5 19 -1
0 -3 7 -5 15 -2 13 -10 41 -39 145 -16 60 -30 104 -36 120 -13 32 -23 59 -26
70 -6 26 -66 179 -84 217 -11 23 -20 45 -20 50 0 18 -154 321 -225 443 -36 61
-130 206 -144 222 -6 7 -11 15 -11 19 0 4 -16 26 -35 50 -19 23 -35 47 -35 52
0 5 -7 12 -15 16 -8 3 -15 12 -15 20 0 8 -4 16 -8 18 -4 2 -23 23 -42 47 -19
25 -42 52 -50 61 -8 9 -35 41 -60 71 -75 90 -190 209 -344 354 -11 11 -64 55
-116 99 -52 43 -107 89 -122 102 -15 13 -33 24 -38 24 -6 0 -13 7 -16 15 -4 8
-11 15 -17 15 -6 0 -20 8 -31 19 -17 15 -111 80 -176 121 -8 5 -31 20 -50 33
-19 13 -55 34 -80 47 -25 13 -52 30 -60 36 -31 25 -349 181 -455 223 -11 5
-33 15 -50 22 -16 7 -34 14 -40 15 -5 0 -23 7 -40 13 -16 7 -34 14 -40 15 -5
2 -19 6 -30 10 -11 5 -37 14 -58 22 -45 17 -243 74 -272 79 -11 2 -56 13 -99
24 -44 11 -83 18 -88 15 -4 -3 -8 0 -8 6 0 6 -4 9 -8 6 -4 -2 -37 2 -72 9 -36
7 -87 16 -115 20 -142 19 -254 30 -287 30 -21 0 -38 2 -38 5 0 3 -41 5 -90 5
-50 0 -90 4 -90 8 0 4 -8 3 -19 -2 -10 -6 -21 -8 -24 -4 -6 5 -106 11 -111 5z"/>
</g>
</svg>
